<svg id="Group_1880" data-name="Group 1880" xmlns="http://www.w3.org/2000/svg" xmlns:xlink="http://www.w3.org/1999/xlink" width="154.335" height="144.129" viewBox="0 0 154.335 144.129">
  <defs>
    <clipPath id="clip-path">
      <rect id="Rectangle_2787" data-name="Rectangle 2787" width="154.335" height="144.129" fill="none"/>
    </clipPath>
  </defs>
  <g id="Group_1879" data-name="Group 1879" clip-path="url(#clip-path)">
    <path id="Path_14475" data-name="Path 14475" d="M6.824,142.527v5.833q0,5.249,2.859,7.991t8.223,2.742h5.25v-6.709q0-7.64,4.083-11.665T38.847,136.7h8.4v17.556q0,4.842,3.792,4.842H52.5v6.766H51.037a9.914,9.914,0,0,1-7.816-3.15,12.268,12.268,0,0,1-2.8-8.458V143.344H38.964q-4.669,0-6.855,2.187t-2.187,6.795v13.532H17.906q-8.4,0-13.152-4.753T0,148.361v-5.833Zm4.083,31.555a3.75,3.75,0,0,1,1.108-2.712,3.838,3.838,0,0,1,5.453,0,3.7,3.7,0,0,1,1.138,2.712,3.852,3.852,0,0,1-1.108,2.742,3.754,3.754,0,0,1-2.741,1.166,3.66,3.66,0,0,1-2.712-1.166,3.8,3.8,0,0,1-1.138-2.742M22.69,171.4a3.563,3.563,0,0,1,2.683-1.166,3.773,3.773,0,0,1,2.772,1.137,3.708,3.708,0,0,1,1.136,2.712,3.805,3.805,0,0,1-1.136,2.742,3.728,3.728,0,0,1-2.772,1.166,3.662,3.662,0,0,1-2.712-1.166,3.8,3.8,0,0,1-1.138-2.742A3.564,3.564,0,0,1,22.69,171.4" transform="translate(0 -33.981)" fill="#fff"/>
    <path id="Path_14476" data-name="Path 14476" d="M68.309,165.859v-6.766h1.634q4.024,0,4.025-5.133V136.7h6.824V153.96q0,5.133,4.082,5.133h1.633v6.766H84.875a8.4,8.4,0,0,1-7.465-3.733,8.586,8.586,0,0,1-7.466,3.733Zm4.959,8.108a3.835,3.835,0,0,1,1.195-2.858,4.015,4.015,0,0,1,5.659,0,3.842,3.842,0,0,1,1.2,2.858,3.891,3.891,0,0,1-1.167,2.858,4.014,4.014,0,0,1-2.858,1.166,3.917,3.917,0,0,1-2.83-1.166,3.839,3.839,0,0,1-1.195-2.858" transform="translate(-16.981 -33.981)" fill="#fff"/>
    <path id="Path_14477" data-name="Path 14477" d="M103.166,159.093l-8.108-12.132V136.7H117.4a14.993,14.993,0,0,1,8.312,2.042,7,7,0,0,1,3.12,6.3,10.346,10.346,0,0,1-.642,3.529,15.1,15.1,0,0,1-2.07,3.733q-1.431,1.956-2.538,3.267t-3.149,3.529h12.482l.059,6.766h-42v-6.766Zm-.059-12.366,8.108,12.366h1.516q.467-.467,1.459-1.546T115.618,156q.437-.465,1.255-1.4t1.225-1.428c.271-.33.613-.748,1.02-1.254a9.507,9.507,0,0,0,.9-1.283q.292-.524.613-1.137a4.75,4.75,0,0,0,.437-1.138,4.853,4.853,0,0,0,.116-1.05,3.12,3.12,0,0,0-1.517-3.062,10.723,10.723,0,0,0-4.723-.788H103.107Z" transform="translate(-22.615 -33.981)" fill="#fff"/>
    <path id="Path_14478" data-name="Path 14478" d="M147.062,153.092a3.592,3.592,0,0,0,3.033-1.371,6.042,6.042,0,0,0,1.05-3.762V130.694h6.766v16.623a6.232,6.232,0,0,0,1.341,4.229,4.535,4.535,0,0,0,6.795.029,6.3,6.3,0,0,0,1.313-4.258V130.694h6.824v16.623a6.232,6.232,0,0,0,1.342,4.229,4.475,4.475,0,0,0,6.766,0,6.236,6.236,0,0,0,1.342-4.229V130.694h6.824v16.623a12.833,12.833,0,0,1-3.354,9.07,10.841,10.841,0,0,1-8.195,3.471,8.88,8.88,0,0,1-8.108-4.375,9.015,9.015,0,0,1-8.166,4.375,9.24,9.24,0,0,1-7.99-4.025q-2.393,4.026-7.582,4.025h-1.751v-6.766ZM162.4,121.361a3.77,3.77,0,0,1,5.338,0,3.609,3.609,0,0,1,1.138,2.683,3.469,3.469,0,0,1-1.109,2.625,3.655,3.655,0,0,1-2.683,1.108,3.7,3.7,0,0,1-2.684-1.08,3.556,3.556,0,0,1-1.107-2.653,3.654,3.654,0,0,1,1.107-2.683m5.484-7.816a3.487,3.487,0,0,1,4.871,0,3.444,3.444,0,1,1-4.871,4.871,3.486,3.486,0,0,1,0-4.871m5.016,7.816a3.463,3.463,0,0,1,2.625-1.108,3.783,3.783,0,0,1,3.791,3.791,3.469,3.469,0,0,1-1.108,2.625,3.655,3.655,0,0,1-2.683,1.108,3.686,3.686,0,0,1-3.733-3.733,3.653,3.653,0,0,1,1.108-2.683" transform="translate(-36.123 -27.98)" fill="#fff"/>
    <path id="Path_14479" data-name="Path 14479" d="M92.779,187.922l.848-1.026a2.385,2.385,0,0,0,1.953,1.026c.607,0,1.057-.319,1.057-.787,0-.3-.22-.559-.669-.768-.1-.05-.339-.14-.727-.289a7.514,7.514,0,0,1-.866-.4,2.04,2.04,0,0,1-1.166-1.833,1.943,1.943,0,0,1,.7-1.534,2.669,2.669,0,0,1,1.813-.618,3.268,3.268,0,0,1,2.422,1l-.787,1.076a2.327,2.327,0,0,0-1.615-.687c-.588,0-.946.278-.946.707,0,.289.2.527.6.727l.728.319c.408.17.707.3.9.389a1.954,1.954,0,0,1,1.256,1.833,2.01,2.01,0,0,1-.748,1.614,2.929,2.929,0,0,1-1.953.627,3.315,3.315,0,0,1-2.79-1.374" transform="translate(-23.064 -45.167)" fill="#fbb824"/>
    <path id="Path_14480" data-name="Path 14480" d="M112.645,189.216v-7.363h1.476v2.939h3.088v-2.939h1.474v7.363h-1.474v-3h-3.088v3Z" transform="translate(-28.002 -45.207)" fill="#fbb824"/>
    <path id="Path_14481" data-name="Path 14481" d="M138.087,189.216l-.548-1.594h-2.57l-.568,1.594h-1.545l2.81-7.363h1.2l2.77,7.363Zm-1.823-5.361-.877,2.451h1.734Z" transform="translate(-33.027 -45.207)" fill="#fbb824"/>
    <path id="Path_14482" data-name="Path 14482" d="M158.31,189.216l-.548-1.594h-2.57l-.568,1.594h-1.545l2.81-7.363h1.2l2.77,7.363Zm-1.823-5.361-.877,2.451h1.734Z" transform="translate(-38.054 -45.207)" fill="#fbb824"/>
    <path id="Path_14483" data-name="Path 14483" d="M179.987,187.074a2.011,2.011,0,0,1-.638,1.525,2.325,2.325,0,0,1-1.693.618H174.3v-7.363h3.208a2.065,2.065,0,0,1,1.535.548,1.771,1.771,0,0,1,.558,1.286,1.6,1.6,0,0,1-1.007,1.495,1.84,1.84,0,0,1,1.395,1.893m-4.234-3.936v1.605H177.2a.845.845,0,0,0,.937-.827.794.794,0,0,0-.877-.778Zm1.614,4.783a.979.979,0,1,0,0-1.943h-1.614v1.943Z" transform="translate(-43.329 -45.207)" fill="#fbb824"/>
    <path id="Path_14484" data-name="Path 14484" d="M199.6,181.853l-2.551,4.813v2.55h-1.474v-2.55l-2.522-4.813h1.7l1.555,3.228,1.585-3.228Z" transform="translate(-47.99 -45.207)" fill="#fbb824"/>
    <path id="Path_14485" data-name="Path 14485" d="M58.627,23.565V84.523H48.788V32.248a5.206,5.206,0,0,1,2.6-4.508Z" transform="translate(-12.128 -5.858)" fill="#fbb824"/>
    <path id="Path_14486" data-name="Path 14486" d="M153.35,32.254v52.27h-9.839V23.565l7.238,4.182a5.205,5.205,0,0,1,2.6,4.507" transform="translate(-35.675 -5.858)" fill="#fbb824"/>
    <path id="Path_14487" data-name="Path 14487" d="M66.249,54.6l17.037,9.839H55.335V54.6Z" transform="translate(-13.756 -13.573)" fill="#fbb824"/>
    <path id="Path_14488" data-name="Path 14488" d="M141.637,54.6v9.839h-8.409L116.184,54.6Z" transform="translate(-28.882 -13.573)" fill="#fbb824"/>
    <path id="Path_14489" data-name="Path 14489" d="M113.554,78.932H75.947a5.2,5.2,0,0,1-5.205-5.205V61.5h9.839v7.588H108.92V59.352L73.344,38.812a5.2,5.2,0,0,1-2.6-4.508V17.133a5.207,5.207,0,0,1,2.6-4.508l18.8-10.856a5.2,5.2,0,0,1,5.205,0l18.8,10.856a5.207,5.207,0,0,1,2.6,4.508V29.476H108.92V19.808L94.75,11.628,80.581,19.808v11.82l35.576,20.54a5.2,5.2,0,0,1,2.6,4.508V73.727a5.2,5.2,0,0,1-5.205,5.205" transform="translate(-17.586 -0.266)" fill="#fff"/>
    <path id="Path_14490" data-name="Path 14490" d="M151.622,5.142A1.2,1.2,0,0,0,152.4,3.95,1.32,1.32,0,0,0,151,2.609h-1.625V6.651h.769V5.275h.671l.8,1.376h.873Zm-.8-.5h-.671V3.262h.671c.538,0,.8.22.8.671,0,.468-.266.706-.8.706" transform="translate(-37.134 -0.649)" fill="#fff"/>
    <path id="Path_14491" data-name="Path 14491" d="M152.752,1.192A3.838,3.838,0,0,0,149.918,0a3.9,3.9,0,0,0-2.851,1.192A3.839,3.839,0,0,0,145.9,4.025a3.874,3.874,0,0,0,1.168,2.845,3.879,3.879,0,0,0,2.851,1.174,3.822,3.822,0,0,0,2.834-1.174,3.872,3.872,0,0,0,1.192-2.845,3.838,3.838,0,0,0-1.192-2.834m-.567,5.095a3.2,3.2,0,0,1-4.528,0,3.091,3.091,0,0,1-.937-2.261,3.092,3.092,0,0,1,.937-2.267,3.2,3.2,0,0,1,4.528,0,3.092,3.092,0,0,1,.937,2.267,3.091,3.091,0,0,1-.937,2.261" transform="translate(-36.269)" fill="#fff"/>
  </g>
</svg>
